<svg version="1.0" xmlns="http://www.w3.org/2000/svg" width="264" height="264" viewBox="0 0 198 198"><path d="M67.1 36.7C56.2 42.1 51.6 55 56.5 66l1.7 3.7-15.7 23.9-15.7 23.9-5.1.6c-6.7.9-9.7 2.1-14 5.8-9.8 8.7-9.9 24.3-.3 32.8 4.6 4 10.1 6.3 15.2 6.3 16.3 0 27.2-17.9 19.8-32.5-2.5-4.9-2.5-5-.8-8 3.7-6.2 28.4-43.4 29.1-43.8.5-.2 2.9-.2 5.4.1l4.5.4L92 102.1c10.7 21.3 11.4 23.1 10.1 25.2-3.4 5.2-4.4 8.2-4.3 13.2.1 9.2 5.2 16.8 13.6 20.4 9 3.9 17.6 2.2 24.7-4.9 7-7 8.7-16.6 4.5-25-1.5-3.1-1.5-3.4 1.2-7.4 1.6-2.2 3.8-5.7 5-7.7l2.2-3.6-5.3-3.6c-3-2.1-5.9-3.7-6.5-3.7-.7 0-3.2 3.1-5.7 6.8l-4.6 6.9-5.2-.5c-2.9-.2-5.2-.5-5.3-.6 0 0-5.2-10.4-11.4-22.9-9.6-19.1-11.2-23.1-10.2-24.5 3.3-4.7 4.4-8.8 3.9-15.3-.3-5.5-1-7.5-3.6-11.1-6.6-9.2-18.1-12.1-28-7.1zm100-1.3c-13.1 4.3-19.3 21.7-11.7 32.9l2.4 3.4-4.8 7.5-4.7 7.4 5.7 3.7c3.1 2 6.1 3.7 6.6 3.7s3-3.3 5.5-7.4l4.6-7.3 5.6-.6c6.3-.6 10-2.3 14.1-6.4 10.7-10.5 7.7-29-5.7-36-4.2-2.1-12.4-2.5-17.6-.9zm13.7 14.9c1.1 1.2 2.3 3.7 2.5 5.5.4 2.7 0 3.9-2.1 6.2-3.8 4-7.2 4.5-11.3 1.7-6.2-4.1-4.7-13.6 2.4-15.5 4-1.1 6-.6 8.5 2.1z"/></svg>