<?xml version="1.0" standalone="no"?>
<!DOCTYPE svg PUBLIC "-//W3C//DTD SVG 20010904//EN"
 "http://www.w3.org/TR/2001/REC-SVG-20010904/DTD/svg10.dtd">
<svg version="1.0" xmlns="http://www.w3.org/2000/svg"
 width="198.000000pt" height="198.000000pt" viewBox="0 0 198.000000 198.000000"
 preserveAspectRatio="xMidYMid meet">
<metadata>
Created by potrace 1.11, written by Peter Selinger 2001-2013
</metadata>
<g transform="translate(0.000000,198.000000) scale(0.100000,-0.100000)"
fill="#000000" stroke="none">
<path d="M671 1613 c-109 -54 -155 -183 -106 -293 l17 -37 -157 -239 -157
-239 -51 -6 c-67 -9 -97 -21 -140 -58 -98 -87 -99 -243 -3 -328 46 -40 101
-63 152 -63 163 0 272 179 198 325 -25 49 -25 50 -8 80 37 62 284 434 291 438
5 2 29 2 54 -1 l45 -4 114 -229 c107 -213 114 -231 101 -252 -34 -52 -44 -82
-43 -132 1 -92 52 -168 136 -204 90 -39 176 -22 247 49 70 70 87 166 45 250
-15 31 -15 34 12 74 16 22 38 57 50 77 l22 36 -53 36 c-30 21 -59 37 -65 37
-7 0 -32 -31 -57 -68 l-46 -69 -52 5 c-29 2 -52 5 -53 6 0 0 -52 104 -114 229
-96 191 -112 231 -102 245 33 47 44 88 39 153 -3 55 -10 75 -36 111 -66 92
-181 121 -280 71z"/>
<path d="M1671 1626 c-131 -43 -193 -217 -117 -329 l24 -34 -48 -75 -47 -74
57 -37 c31 -20 61 -37 66 -37 5 0 30 33 55 74 l46 73 56 6 c63 6 100 23 141
64 107 105 77 290 -57 360 -42 21 -124 25 -176 9z m137 -149 c11 -12 23 -37
25 -55 4 -27 0 -39 -21 -62 -38 -40 -72 -45 -113 -17 -62 41 -47 136 24 155
40 11 60 6 85 -21z"/>
</g>
</svg>
